<mxfile host="app.diagrams.net" modified="2024-03-05T13:34:18.854Z" agent="Mozilla/5.0 (Windows NT 10.0; Win64; x64) AppleWebKit/537.36 (KHTML, like Gecko) Chrome/122.0.0.0 Safari/537.36" version="24.0.0" etag="262RTm_Sh7MvQSDJtl5d" type="github">
  <diagram name="PÃ¡gina-1" id="2a2k_gwQvz0UQ88YKNxa">
    <mxGraphModel>
      <root>
        <mxCell id="0" />
        <mxCell id="1" parent="0" />
      </root>
    </mxGraphModel>
  </diagram>
</mxfile>
